<svg xmlns="http://www.w3.org/2000/svg" viewBox="0 0 186.83 23.11"><title>Asset 1</title><g id="Layer_2" data-name="Layer 2"><g id="Layer_1-2" data-name="Layer 1"><path d="M39.1,21.91a5.36,5.36,0,0,1-3.64,1.2,6.87,6.87,0,0,1-1.72-.2,4.19,4.19,0,0,1-1.44-.64,3.28,3.28,0,0,1-1-1.17,3.89,3.89,0,0,1-.41-1.71h.46a3.39,3.39,0,0,0,.37,1.5,2.87,2.87,0,0,0,.91,1,3.82,3.82,0,0,0,1.28.57,5.84,5.84,0,0,0,1.53.17,4.87,4.87,0,0,0,3.34-1.07,4.18,4.18,0,0,0,1.14-3.28l0-2.69a4.25,4.25,0,0,1-1.68,1.92,5.15,5.15,0,0,1-2.65.7,5.25,5.25,0,0,1-2.26-.46,4.81,4.81,0,0,1-1.67-1.28,5.75,5.75,0,0,1-1-1.9,7.44,7.44,0,0,1-.37-2.3,8.72,8.72,0,0,1,.32-2.47,6,6,0,0,1,1-2.07A5,5,0,0,1,33.24,6.3a5.31,5.31,0,0,1,2.48-.56,4.88,4.88,0,0,1,2.39.57,4.1,4.1,0,0,1,1.71,1.74L39.8,6h.46l.12,12.31A4.62,4.62,0,0,1,39.1,21.91ZM39.83,9.6a2.53,2.53,0,0,0-.37-1.34,3.63,3.63,0,0,0-1-1.08,4.52,4.52,0,0,0-1.31-.72,4.24,4.24,0,0,0-1.48-.26,4.91,4.91,0,0,0-2.41.57A4.54,4.54,0,0,0,31.76,8.2a6.1,6.1,0,0,0-.84,2,9.3,9.3,0,0,0-.25,2.13A6.87,6.87,0,0,0,31,14.36a5.25,5.25,0,0,0,.93,1.75,4.32,4.32,0,0,0,1.52,1.21,4.62,4.62,0,0,0,2.09.43,5.47,5.47,0,0,0,1.67-.28,4.28,4.28,0,0,0,1.38-.79,3.81,3.81,0,0,0,.94-1.23,3.62,3.62,0,0,0,.33-1.61Z"/><path d="M49.77,6.08a4.09,4.09,0,0,0-1.87.42,3.92,3.92,0,0,0-1.35,1.1,4.74,4.74,0,0,0-.81,1.6,6.61,6.61,0,0,0-.26,1.9l.06,6.75h-.46L45,5.93h.46l0,3A4,4,0,0,1,47,6.45a4.68,4.68,0,0,1,2.77-.83h.37Z"/><path d="M61.1,17.7l0-2.29a4.25,4.25,0,0,1-1.69,1.91,5.6,5.6,0,0,1-4.91.25,4.81,4.81,0,0,1-1.67-1.28,5.93,5.93,0,0,1-1-1.9,7.44,7.44,0,0,1-.37-2.3,8.72,8.72,0,0,1,.32-2.47,6,6,0,0,1,1-2.07,5,5,0,0,1,1.71-1.44,5.31,5.31,0,0,1,2.48-.56,4.88,4.88,0,0,1,2.39.57A4.08,4.08,0,0,1,61,7.85l0-2.06h.46l.11,11.91ZM61,9.41a2.53,2.53,0,0,0-.37-1.34A3.63,3.63,0,0,0,59.7,7a4.39,4.39,0,0,0-1.31-.72A4.24,4.24,0,0,0,56.91,6a4.84,4.84,0,0,0-2.4.57A4.48,4.48,0,0,0,53,8a6.33,6.33,0,0,0-.84,2,9.3,9.3,0,0,0-.25,2.13,6.87,6.87,0,0,0,.34,2.08,5.25,5.25,0,0,0,.93,1.75,4.32,4.32,0,0,0,1.52,1.21,4.62,4.62,0,0,0,2.09.43,5.41,5.41,0,0,0,1.67-.28,4.28,4.28,0,0,0,1.38-.79,3.88,3.88,0,0,0,.94-1.23,3.49,3.49,0,0,0,.33-1.61Z"/><path d="M76.51,11.86a7.55,7.55,0,0,1-.33,2.31,5.71,5.71,0,0,1-1,1.91,4.82,4.82,0,0,1-1.65,1.31,5.55,5.55,0,0,1-4.91-.15,4.32,4.32,0,0,1-1.73-1.88L67,22.43h-.47L66.34,5.74h.47l0,2.06A4,4,0,0,1,68.5,6a4.89,4.89,0,0,1,2.39-.62,5.49,5.49,0,0,1,2.48.51,5,5,0,0,1,1.74,1.41,6.25,6.25,0,0,1,1,2.06A9,9,0,0,1,76.51,11.86Zm-.47,0a8.7,8.7,0,0,0-.28-2.12,6.12,6.12,0,0,0-.88-1.94,4.5,4.5,0,0,0-1.59-1.4,4.84,4.84,0,0,0-2.4-.52,4,4,0,0,0-1.47.28,4.49,4.49,0,0,0-1.3.74A3.62,3.62,0,0,0,67.19,8a2.66,2.66,0,0,0-.35,1.34l0,4.25a3.56,3.56,0,0,0,.36,1.6,3.78,3.78,0,0,0,1,1.21,4.33,4.33,0,0,0,1.4.77,5.4,5.4,0,0,0,1.67.25A4.72,4.72,0,0,0,73.35,17a4.51,4.51,0,0,0,1.5-1.23,5.43,5.43,0,0,0,.9-1.78A6.84,6.84,0,0,0,76,11.87Z"/><path d="M89.63,17.45l-.07-7.84a4,4,0,0,0-1-2.84,3.66,3.66,0,0,0-2.8-1,4.17,4.17,0,0,0-1.88.43,4,4,0,0,0-1.34,1.1,4.78,4.78,0,0,0-.81,1.59,6.34,6.34,0,0,0-.26,1.91l.06,6.74h-.47L80.9.83h.47l.07,7.72A4,4,0,0,1,83,6.14a4.71,4.71,0,0,1,2.76-.85,4.12,4.12,0,0,1,3.11,1.13A4.29,4.29,0,0,1,90,9.54l.07,7.9Z"/><path d="M95.7.93a.6.6,0,0,1-.18.44.58.58,0,0,1-.44.19.54.54,0,0,1-.44-.18A.56.56,0,0,1,94.45,1,.63.63,0,0,1,94.63.5a.66.66,0,0,1,.44-.19.6.6,0,0,1,.44.18A.59.59,0,0,1,95.7.93ZM95,17.4,94.88,5.48h.47l.11,11.91Z"/><path d="M109.55,15a4.47,4.47,0,0,1-1,1.37,4.25,4.25,0,0,1-1.46.89,5.72,5.72,0,0,1-1.84.32,5.18,5.18,0,0,1-2.29-.47,4.83,4.83,0,0,1-1.66-1.3,5.74,5.74,0,0,1-1-1.89,7.36,7.36,0,0,1-.37-2.28,9.21,9.21,0,0,1,.31-2.48,6.33,6.33,0,0,1,1-2.09,5.06,5.06,0,0,1,1.72-1.42,5.69,5.69,0,0,1,4.14-.29,4.58,4.58,0,0,1,1.41.77,4,4,0,0,1,1,1.21A4.53,4.53,0,0,1,110,9h-.46a3.94,3.94,0,0,0-1.38-2.52,4.18,4.18,0,0,0-2.73-.88,5,5,0,0,0-2.28.51,4.47,4.47,0,0,0-1.58,1.34,5.83,5.83,0,0,0-.91,1.93,8.68,8.68,0,0,0-.28,2.3,7.13,7.13,0,0,0,.33,2.08,5.45,5.45,0,0,0,.94,1.75,4.37,4.37,0,0,0,1.51,1.21,4.7,4.7,0,0,0,2.1.43,5.18,5.18,0,0,0,1.64-.28,4.09,4.09,0,0,0,1.34-.79,4,4,0,0,0,.92-1.22,4.21,4.21,0,0,0,.42-1.62H110A5,5,0,0,1,109.55,15Z"/><path d="M128.25,11.85a8.74,8.74,0,0,1-2.74,4.6,7.59,7.59,0,0,1-2.23,1.36,7,7,0,0,1-2.61.49,4.83,4.83,0,0,1-2.37-.53,3.09,3.09,0,0,1-1.41-1.51l-.4,1.75h-2.13l3.26-14.13a3.26,3.26,0,0,0,.12-1,1.07,1.07,0,0,0-.21-.57.91.91,0,0,0-.46-.26,3,3,0,0,0-.62-.06L117.67.3a4.57,4.57,0,0,1,1,.11,1.68,1.68,0,0,1,.83.42,1.71,1.71,0,0,1,.45.89,3.5,3.5,0,0,1-.09,1.47l-.86,3.71a6,6,0,0,1,2.08-1.38,6.53,6.53,0,0,1,2.41-.46,5.64,5.64,0,0,1,2.54.52A4.25,4.25,0,0,1,127.71,7a4.94,4.94,0,0,1,.72,2.16A8.2,8.2,0,0,1,128.25,11.85Zm-2.14,0a7.87,7.87,0,0,0,.21-1.91,3.77,3.77,0,0,0-.38-1.64,2.74,2.74,0,0,0-1.13-1.16,4,4,0,0,0-2-.44,4.23,4.23,0,0,0-1.31.22,6.7,6.7,0,0,0-1.34.6,4.61,4.61,0,0,0-1.1.9,2.7,2.7,0,0,0-.62,1.13l-.88,3.86a2.59,2.59,0,0,0,0,1.36,2.72,2.72,0,0,0,.64,1,2.91,2.91,0,0,0,1.09.65,4.47,4.47,0,0,0,1.37.22,5.15,5.15,0,0,0,3.58-1.38,5.69,5.69,0,0,0,1.15-1.53A7.84,7.84,0,0,0,126.11,11.85Z" fill="#014098"/><path d="M143.31,18.06a3,3,0,0,1-1.24-.21,1.59,1.59,0,0,1-.69-.58,2,2,0,0,1-.28-.86,5.9,5.9,0,0,1,0-1,5.82,5.82,0,0,1-2.22,2.19,6,6,0,0,1-2.93.73,3.5,3.5,0,0,1-3-1.2,3.76,3.76,0,0,1-.45-3.24l1.08-4.68a2.67,2.67,0,0,0,0-1.72A1.15,1.15,0,0,0,132.49,7l1.22-1.72a4.55,4.55,0,0,1,1.17.13,1.68,1.68,0,0,1,.81.47,1.56,1.56,0,0,1,.39.9A3.69,3.69,0,0,1,136,8.19l-1.08,4.64a5.55,5.55,0,0,0-.18,1.46,2.73,2.73,0,0,0,.27,1.18,1.86,1.86,0,0,0,.78.79,2.84,2.84,0,0,0,1.39.3,4,4,0,0,0,1.67-.34,4.17,4.17,0,0,0,1.33-.94,5.4,5.4,0,0,0,1-1.34,6.55,6.55,0,0,0,.59-1.6l1.62-7h2.11l-2.11,9.15a3.31,3.31,0,0,0-.11,1,1,1,0,0,0,.21.56.82.82,0,0,0,.45.26,3.2,3.2,0,0,0,.65.06Z" fill="#014098"/><path d="M155.83,1.73h-.62a3.71,3.71,0,0,0-.67.06A1.33,1.33,0,0,0,154,2a1.51,1.51,0,0,0-.46.55,4.28,4.28,0,0,0-.34.95l-.42,1.82h1.33l-.37,1.57h-1.33l-3.06,13.29a5,5,0,0,1-.59,1.48A2.83,2.83,0,0,1,146.85,23a5.88,5.88,0,0,1-1.11.11l-.44-1.72a3.6,3.6,0,0,0,.66-.06,1.35,1.35,0,0,0,.57-.26,1.59,1.59,0,0,0,.46-.55,4.13,4.13,0,0,0,.34-1l2.92-12.63h-1.33l.35-1.45h1.33l.58-2.57a4.83,4.83,0,0,1,.59-1.47,3.16,3.16,0,0,1,.85-.89,2.82,2.82,0,0,1,1-.43A6,6,0,0,1,154.77,0a10,10,0,0,1,1,.05,7.89,7.89,0,0,0,.84.05l-.37,1.69A2.46,2.46,0,0,0,155.83,1.73Z" fill="#014098"/><path d="M165.2,1.73h-.62a3.71,3.71,0,0,0-.67.06,1.33,1.33,0,0,0-.57.25,1.51,1.51,0,0,0-.46.55,4.28,4.28,0,0,0-.34.95l-.42,1.82h1.33l-.37,1.57h-1.33l-3.06,13.29a5,5,0,0,1-.59,1.48,3.09,3.09,0,0,1-.84.88,3.14,3.14,0,0,1-1,.43,6,6,0,0,1-1.11.11l-.44-1.72a3.6,3.6,0,0,0,.66-.06,1.35,1.35,0,0,0,.57-.26,1.59,1.59,0,0,0,.46-.55,4.13,4.13,0,0,0,.34-1l2.92-12.63h-1.33l.35-1.45H160l.58-2.57a4.59,4.59,0,0,1,.59-1.47A3.16,3.16,0,0,1,162,.54a2.82,2.82,0,0,1,1-.43A6,6,0,0,1,164.14,0a10,10,0,0,1,1.05.05A7.89,7.89,0,0,0,166,.1l-.37,1.69A2.46,2.46,0,0,0,165.2,1.73Z" fill="#014098"/><path d="M175.67,15.46A7.89,7.89,0,0,1,174.1,17,7,7,0,0,1,170,18.3a5.38,5.38,0,0,1-2.4-.5A4.12,4.12,0,0,1,166,16.42a4.62,4.62,0,0,1-.75-2.05,6.86,6.86,0,0,1,.16-2.52,9.13,9.13,0,0,1,1-2.66A8.49,8.49,0,0,1,168.14,7a7.89,7.89,0,0,1,2.29-1.45,7.31,7.31,0,0,1,2.78-.52,6.16,6.16,0,0,1,1.93.29,3.86,3.86,0,0,1,1.47.87,3.35,3.35,0,0,1,.88,1.4,4.12,4.12,0,0,1,.14,1.91L167.32,13a4.71,4.71,0,0,0,.08,1.42,3.13,3.13,0,0,0,.51,1.16,2.5,2.5,0,0,0,1,.79,3.63,3.63,0,0,0,1.49.28,4.3,4.3,0,0,0,2.66-.9,4.64,4.64,0,0,0,1.66-2.36h2A7.91,7.91,0,0,1,175.67,15.46Zm-.87-8.15a2.9,2.9,0,0,0-1.93-.61,4.8,4.8,0,0,0-1.92.38,5,5,0,0,0-1.5,1,6.07,6.07,0,0,0-1.1,1.48,8.41,8.41,0,0,0-.68,1.77,1.36,1.36,0,0,0,0,.17c0,.05,0,.1,0,.17l8-2.66A2.28,2.28,0,0,0,174.8,7.31Z" fill="#014098"/><path d="M183.35,18.06a4.55,4.55,0,0,1-1.07-.12,1.6,1.6,0,0,1-.83-.42,1.64,1.64,0,0,1-.45-.89,3.76,3.76,0,0,1,.11-1.47l1.94-8.39h-1.32l.32-1.42h1.32l.71-3,2.31-.78-.89,3.75h1.33l-.34,1.42h-1.33l-1.77,7.7a3.16,3.16,0,0,0-.1,1,1,1,0,0,0,.2.56.85.85,0,0,0,.46.26,3,3,0,0,0,.62.06Z" fill="#014098"/><path d="M3.44,22.84s2,1.3,2.61-1.84c-.54-1.88-3.11-8.43-3.11-8.43s-.81-2.11-2-2-1.16,1.61-.69,3.2S1.61,18,2.15,19.59A15.23,15.23,0,0,0,3.44,22.84Z" fill="#014099"/><path d="M.72,12.68s2.22,4.47,4.47,5.86L4.66,17Z" fill="#033168"/><path d="M1.47,4.26s-.28-1.68.61-2.37a3.57,3.57,0,0,1,1.79-.74s4.19,9.11,8.31,13.63c2.65,3,3.47,4,3.47,4.34a3.3,3.3,0,0,1-.25,1.44c-.25.47-1.75,1.77-2.54,1.7s-4.62-3.61-6.74-7.84S1.68,5,1.47,4.26Z" fill="#014099"/><path d="M15.65,19.12a3.24,3.24,0,0,1-2.47,3.29c-1,.11-2.54-.76-3.4-1.34a35.23,35.23,0,0,1-7.49-6.51C.43,12.46,0,11.81.07,11.34a4.16,4.16,0,0,1,1.65-1.7,1.29,1.29,0,0,1,1.36.62,28.17,28.17,0,0,0,4.23,4.45C9.38,16.44,14.58,19.77,15.65,19.12Z" fill="#014099"/><path d="M1.61,2.85a2.22,2.22,0,0,0,.18,1.08,39.07,39.07,0,0,0,4.55,6.91,45,45,0,0,0,8.85,7.41c-.79-1-3-3.36-3.77-4.41S1.61,2.85,1.61,2.85Z" fill="#033168"/><path d="M12.18,9.21,8.09,3.5s-.61-1.4.17-1.8a1.24,1.24,0,0,1,1.3,0,65.34,65.34,0,0,0,8.35,7.67c3.83,2.71,6.19,4,6.52,4.26a2,2,0,0,1,.46,1.66c-.11.69-1.72,2.72-2.36,2.82S14.29,12.5,12.18,9.21Z" fill="#014099"/><path d="M24.64,13.69a2.08,2.08,0,0,1,.25,1.59c-.25.84-1.57,3-2.79,3a24.83,24.83,0,0,1-11.18-4.67C6.59,10.3,3.15,6.25,1.72,3.32a1.43,1.43,0,0,1,.39-1.48C2.4,1.58,3.29.68,3.29.68s.76-.55,1.15,0,4.48,6.65,8.67,9S20.27,13.59,24.64,13.69Z" fill="#014099"/><path d="M8.16,3.08s3.62,4,6.25,5.45,4.91,2.6,5.77,2.39c-1.35-.84-3.51-2.52-3.51-2.52Z" fill="#033168"/><path d="M16.43,4.79a25,25,0,0,1-2.82-3.2C13.5,1.1,14.25-.2,15.28.53A43.43,43.43,0,0,0,20.41,4c2.44,1.35,4.46,2.36,4.51,2.46a3.82,3.82,0,0,1-.24,1.85,3,3,0,0,1-1.8,1.65C22.26,10,16.43,4.79,16.43,4.79Z" fill="#033c75"/><path d="M24.92,6.44A3.09,3.09,0,0,1,24.81,8a2.54,2.54,0,0,1-1.93,1.9,30.92,30.92,0,0,1-9-2.72,20.29,20.29,0,0,1-6-4.52C7.7,2.2,8.31.53,9.56.9A26.77,26.77,0,0,0,24.92,6.44Z" fill="#014099"/></g></g></svg>